<svg width="43" height="39" viewBox="0 0 43 39" fill="none" xmlns="http://www.w3.org/2000/svg">
<path d="M23.4827 21.1547C23.436 21.1606 23.3865 21.1636 23.334 21.1636C22.9665 21.1666 22.4532 20.9824 22.0537 20.7922C21.8524 20.6972 21.6775 20.5992 21.5521 20.5279C21.5258 20.513 21.5112 20.5041 21.4879 20.4892V19.5891C22.0683 19.4703 22.5174 19.0603 22.8323 18.579C23.2056 18.0057 22.5524 17.4353 21.1467 17.4353C19.741 17.4353 19.0877 18.0087 19.461 18.579C19.7964 19.093 20.2863 19.5267 20.925 19.6099V20.4892C20.7763 20.5784 20.5167 20.7239 20.2047 20.8606C19.8343 21.0269 19.3998 21.1636 19.079 21.1636C19.0265 21.1636 18.9769 21.1606 18.9302 21.1547C18.7757 21.1339 18.6357 21.2408 18.6123 21.3983C18.5919 21.5557 18.6998 21.6983 18.8515 21.7191C18.9244 21.728 19.0002 21.734 19.076 21.734C19.6039 21.731 20.1551 21.5141 20.5926 21.3062C20.858 21.1814 21.0679 21.0596 21.2021 20.9794C21.3362 21.0596 21.5462 21.1784 21.8116 21.3062C22.252 21.5112 22.8032 21.728 23.331 21.734C23.4069 21.734 23.4827 21.728 23.5556 21.7191C23.7102 21.6983 23.8181 21.5557 23.7948 21.3983C23.7743 21.2408 23.6314 21.1309 23.4798 21.1547H23.4827Z" fill="#55A3FF"/>
<path d="M17.1921 14.9844C16.67 14.9844 16.2472 15.4151 16.2472 15.9469C16.2472 16.4787 16.67 16.9094 17.1921 16.9094C17.7141 16.9094 18.137 16.4787 18.137 15.9469C18.137 15.4151 17.7141 14.9844 17.1921 14.9844Z" fill="#55A3FF"/>
<path d="M21.1467 0C9.46658 0 0 9.64602 0 21.5439C0 28.7271 3.45591 35.0875 8.76373 39C10.3386 36.6977 10.0032 23.9294 10.8664 18.1691C10.916 17.8483 10.9743 17.5393 11.0385 17.2393C7.25887 15.745 8.27086 11.4582 9.95944 10.3947C12.0067 9.10535 13.357 10.1184 14.089 11.6156C16.3755 9.52719 19.2948 9.00434 21.1467 9.00434C22.9986 9.00434 25.9179 9.52719 28.2043 11.6156C28.9363 10.1184 30.2866 9.10535 32.3339 10.3947C34.0225 11.4582 35.0345 15.745 31.2549 17.2393C31.319 17.5393 31.3774 17.8453 31.4269 18.1691C32.2902 23.9294 31.9548 36.7006 33.5296 39C38.8375 35.0875 42.2934 28.7271 42.2934 21.5439C42.2963 9.64602 32.8268 0 21.1467 0Z" fill="#55A3FF"/>
<path d="M25.1042 14.9844C24.5822 14.9844 24.1593 15.4151 24.1593 15.9469C24.1593 16.4787 24.5822 16.9094 25.1042 16.9094C25.6262 16.9094 26.0491 16.4787 26.0491 15.9469C26.0491 15.4151 25.6262 14.9844 25.1042 14.9844Z" fill="#55A3FF"/>
</svg>
